<svg id="Capa_1" enable-background="new 0 0 512 512" height="512" viewBox="0 0 512 512" width="512" xmlns="http://www.w3.org/2000/svg"><g><path d="m482 36h-452c-16.542 0-30 13.458-30 30v260c0 16.542 13.458 30 30 30h452c16.542 0 30-13.458 30-30v-260c0-16.542-13.458-30-30-30zm10 290c0 5.514-4.486 10-10 10h-452c-5.514 0-10-4.486-10-10v-260c0-5.514 4.486-10 10-10h452c5.514 0 10 4.486 10 10z"/><path d="m301.3 187.52-80-50c-3.083-1.927-6.968-2.029-10.147-.267-3.18 1.762-5.152 5.111-5.152 8.747v100c0 3.635 1.973 6.984 5.152 8.747 3.132 1.736 7.018 1.689 10.147-.267l80-50c2.924-1.827 4.7-5.032 4.7-8.48s-1.776-6.653-4.7-8.48z"/><path d="m502 426h-357.266c-4.452-17.233-20.13-30-38.734-30s-34.282 12.767-38.734 30h-57.266c-5.523 0-10 4.477-10 10s4.477 10 10 10h57.266c4.452 17.233 20.13 30 38.734 30s34.282-12.767 38.734-30h357.266c5.523 0 10-4.477 10-10s-4.477-10-10-10zm-396 30c-11.028 0-20-8.972-20-20s8.972-20 20-20 20 8.972 20 20-8.972 20-20 20z"/></g></svg>